# xmcd
#
# Track frame offsets:
#	150
#	20318
#	39138
#	54892
#	72272
#	95049
#	114391
#	133027
#	152668
#	171763
#	191973
#	209007
#	228957
#	243261
#	265884
#	279269
#	297134
#	313536
#	327564
#	345169
#
# Disc length: 4802 seconds
#
# Revision: 1
# Processed by: cddbd v1.5.2PL0 Copyright (c) Steve Scherf et al.
# Submitted via: EasyCDDAExtractor 2010.6.0.0
#
DISCID=1912c014
DTITLE=Various Artist - Akella Presents - Country-Blues - vol.30  CD1
DYEAR=2011
DGENRE=Blues
TTITLE0=HANS THEESSINK - Homeless
TTITLE1=DIRE STRAITS - Six Blade Knife
TTITLE2=GEORGE TERRY - It's Alright
TTITLE3=JOHN FOGERTY - Broken Down Cowboy
TTITLE4=BO RAMSEY - Can't Sleep
TTITLE5=DUFFY BISHOP - Buzzin'
TTITLE6=TONY JOE WHITE - Wild Wolf Calling Me
TTITLE7=MARK KNOPFLER - True Love Will Never Find
TTITLE8=BRIAN KRAMER and THE COUCH LIZARDS - Lucky You Are
TTITLE9=MICHAEL POWERS - You Got To Go Down
TTITLE10=AYNSLEY LISTER - Crazy
TTITLE11=PAT McMANUS - Return of th G.Man
TTITLE12=AL BASILE - Be A Woman
TTITLE13=LITTLE FEAT - Those Feat'll Steer Ya Wrong Sometimes
TTITLE14=LYNYRD SKYNYRD - Skynyrd Family
TTITLE15=PONTY BONE - I Must Be Dreaming
TTITLE16=GORDIE TENTREES - Mercy or Sin
TTITLE17=SOLOMON BURKE - Atta Way To Go
TTITLE18=BIG HOUSE - The Highway Is My Home
TTITLE19=DELTA MOON - Get Gone
EXTD=
EXTT0=
EXTT1=
EXTT2=
EXTT3=
EXTT4=
EXTT5=
EXTT6=
EXTT7=
EXTT8=
EXTT9=
EXTT10=
EXTT11=
EXTT12=
EXTT13=
EXTT14=
EXTT15=
EXTT16=
EXTT17=
EXTT18=
EXTT19=
PLAYORDER=
